<svg width="34" height="34" viewBox="0 0 34 34" fill="none" xmlns="http://www.w3.org/2000/svg">
<path fill-rule="evenodd" clip-rule="evenodd" d="M1.78235 4.52727C2.99308 2.35507 5.32601 0.875 8 0.875H21.5C22.1213 0.875 22.625 1.37868 22.625 2V17C22.625 19.2713 20.7713 21.125 18.5 21.125H17C16.3787 21.125 15.875 20.6213 15.875 20C15.875 19.3787 16.3787 18.875 17 18.875H18.5C19.5287 18.875 20.375 18.0287 20.375 17V3.125H8C6.17399 3.125 4.57695 4.13489 3.74768 5.6227C3.44519 6.16541 2.76001 6.36014 2.2173 6.05765C1.67459 5.75515 1.47985 5.06998 1.78235 4.52727Z" fill="url(#paint0_linear_2067_208)"/>
<path fill-rule="evenodd" clip-rule="evenodd" d="M20.375 6.5C20.375 5.87868 20.8787 5.375 21.5 5.375H24.26C25.7508 5.375 27.1066 6.18199 27.8429 7.45011L27.8466 7.4565L30.4115 11.9415C30.6107 12.2897 30.6094 12.7175 30.4081 13.0645C30.2068 13.4114 29.8361 13.625 29.435 13.625H27.5C27.2963 13.625 27.125 13.7963 27.125 14V18.5C27.125 18.7037 27.2963 18.875 27.5 18.875H32C32.6213 18.875 33.125 19.3787 33.125 20V24.5C33.125 27.6113 30.6113 30.125 27.5 30.125H26C25.3787 30.125 24.875 29.6213 24.875 29C24.875 27.9713 24.0287 27.125 23 27.125C21.9713 27.125 21.125 27.9713 21.125 29C21.125 29.6213 20.6213 30.125 20 30.125H14C13.3787 30.125 12.875 29.6213 12.875 29C12.875 27.9713 12.0287 27.125 11 27.125C9.97132 27.125 9.125 27.9713 9.125 29C9.125 29.6213 8.62132 30.125 8 30.125H6.5C3.38868 30.125 0.875 27.6113 0.875 24.5C0.875 23.8787 1.37868 23.375 2 23.375C2.62132 23.375 3.125 23.8787 3.125 24.5C3.125 26.3687 4.63132 27.875 6.5 27.875H7.03146C7.5234 26.1471 9.11839 24.875 11 24.875C12.8816 24.875 14.4766 26.1471 14.9685 27.875H19.0315C19.5234 26.1471 21.1184 24.875 23 24.875C24.8816 24.875 26.4766 26.1471 26.9685 27.875H27.5C29.3687 27.875 30.875 26.3687 30.875 24.5V21.125H27.5C26.0537 21.125 24.875 19.9463 24.875 18.5V14C24.875 12.5551 26.0513 11.3774 27.4956 11.375L25.8971 8.57992C25.8966 8.57898 25.8961 8.57805 25.8955 8.57712C25.5515 7.98689 24.9282 7.625 24.26 7.625H22.625V17C22.625 19.2713 20.7713 21.125 18.5 21.125H17C16.3787 21.125 15.875 20.6213 15.875 20C15.875 19.3787 16.3787 18.875 17 18.875H18.5C19.5287 18.875 20.375 18.0287 20.375 17V6.5Z" fill="url(#paint1_linear_2067_208)"/>
<path fill-rule="evenodd" clip-rule="evenodd" d="M11 27.125C9.96447 27.125 9.125 27.9645 9.125 29C9.125 30.0355 9.96447 30.875 11 30.875C12.0355 30.875 12.875 30.0355 12.875 29C12.875 27.9645 12.0355 27.125 11 27.125ZM6.875 29C6.875 26.7218 8.72183 24.875 11 24.875C13.2782 24.875 15.125 26.7218 15.125 29C15.125 31.2782 13.2782 33.125 11 33.125C8.72183 33.125 6.875 31.2782 6.875 29Z" fill="url(#paint2_linear_2067_208)"/>
<path fill-rule="evenodd" clip-rule="evenodd" d="M23 27.125C21.9645 27.125 21.125 27.9645 21.125 29C21.125 30.0355 21.9645 30.875 23 30.875C24.0355 30.875 24.875 30.0355 24.875 29C24.875 27.9645 24.0355 27.125 23 27.125ZM18.875 29C18.875 26.7218 20.7218 24.875 23 24.875C25.2782 24.875 27.125 26.7218 27.125 29C27.125 31.2782 25.2782 33.125 23 33.125C20.7218 33.125 18.875 31.2782 18.875 29Z" fill="url(#paint3_linear_2067_208)"/>
<path fill-rule="evenodd" clip-rule="evenodd" d="M27.5 13.625C27.2963 13.625 27.125 13.7963 27.125 14V18.5C27.125 18.7037 27.2963 18.875 27.5 18.875H30.875V17.2981L28.7813 13.625H27.5ZM24.875 14C24.875 12.5537 26.0537 11.375 27.5 11.375H29.435C29.8391 11.375 30.2122 11.5918 30.4123 11.9429L32.9774 16.4429C33.0741 16.6126 33.125 16.8046 33.125 17V20C33.125 20.6213 32.6213 21.125 32 21.125H27.5C26.0537 21.125 24.875 19.9463 24.875 18.5V14Z" fill="url(#paint4_linear_2067_208)"/>
<path fill-rule="evenodd" clip-rule="evenodd" d="M0.875 11C0.875 10.3787 1.37868 9.875 2 9.875H11C11.6213 9.875 12.125 10.3787 12.125 11C12.125 11.6213 11.6213 12.125 11 12.125H2C1.37868 12.125 0.875 11.6213 0.875 11Z" fill="url(#paint5_linear_2067_208)"/>
<path fill-rule="evenodd" clip-rule="evenodd" d="M0.875 15.5C0.875 14.8787 1.37868 14.375 2 14.375H8C8.62132 14.375 9.125 14.8787 9.125 15.5C9.125 16.1213 8.62132 16.625 8 16.625H2C1.37868 16.625 0.875 16.1213 0.875 15.5Z" fill="url(#paint6_linear_2067_208)"/>
<path fill-rule="evenodd" clip-rule="evenodd" d="M0.875 20C0.875 19.3787 1.37868 18.875 2 18.875H5C5.62132 18.875 6.125 19.3787 6.125 20C6.125 20.6213 5.62132 21.125 5 21.125H2C1.37868 21.125 0.875 20.6213 0.875 20Z" fill="url(#paint7_linear_2067_208)"/>
<defs>
<linearGradient id="paint0_linear_2067_208" x1="-1.01351" y1="-1.14063" x2="44.5587" y2="12.0253" gradientUnits="userSpaceOnUse">
<stop stop-color="#20A7EE"/>
<stop offset="1" stop-color="#0ED5E1"/>
</linearGradient>
<linearGradient id="paint1_linear_2067_208" x1="-1.01351" y1="-1.14063" x2="44.5587" y2="12.0253" gradientUnits="userSpaceOnUse">
<stop stop-color="#20A7EE"/>
<stop offset="1" stop-color="#0ED5E1"/>
</linearGradient>
<linearGradient id="paint2_linear_2067_208" x1="-1.01351" y1="-1.14063" x2="44.5587" y2="12.0253" gradientUnits="userSpaceOnUse">
<stop stop-color="#20A7EE"/>
<stop offset="1" stop-color="#0ED5E1"/>
</linearGradient>
<linearGradient id="paint3_linear_2067_208" x1="-1.01351" y1="-1.14063" x2="44.5587" y2="12.0253" gradientUnits="userSpaceOnUse">
<stop stop-color="#20A7EE"/>
<stop offset="1" stop-color="#0ED5E1"/>
</linearGradient>
<linearGradient id="paint4_linear_2067_208" x1="-1.01351" y1="-1.14063" x2="44.5587" y2="12.0253" gradientUnits="userSpaceOnUse">
<stop stop-color="#20A7EE"/>
<stop offset="1" stop-color="#0ED5E1"/>
</linearGradient>
<linearGradient id="paint5_linear_2067_208" x1="-1.01351" y1="-1.14063" x2="44.5587" y2="12.0253" gradientUnits="userSpaceOnUse">
<stop stop-color="#20A7EE"/>
<stop offset="1" stop-color="#0ED5E1"/>
</linearGradient>
<linearGradient id="paint6_linear_2067_208" x1="-1.01351" y1="-1.14063" x2="44.5587" y2="12.0253" gradientUnits="userSpaceOnUse">
<stop stop-color="#20A7EE"/>
<stop offset="1" stop-color="#0ED5E1"/>
</linearGradient>
<linearGradient id="paint7_linear_2067_208" x1="-1.01351" y1="-1.14063" x2="44.5587" y2="12.0253" gradientUnits="userSpaceOnUse">
<stop stop-color="#20A7EE"/>
<stop offset="1" stop-color="#0ED5E1"/>
</linearGradient>
</defs>
</svg>
