<svg width="36" height="36" viewBox="0 0 36 36" fill="none" xmlns="http://www.w3.org/2000/svg">
<path fill-rule="evenodd" clip-rule="evenodd" d="M11.5636 6.34385C10.5005 7.66368 10.125 9.5848 10.125 12V15C10.125 15.6213 9.62132 16.125 9 16.125C8.37868 16.125 7.875 15.6213 7.875 15V12C7.875 9.4502 8.24954 6.87132 9.81139 4.9324C11.4156 2.94092 14.0575 1.875 18 1.875C21.9425 1.875 24.5844 2.94092 26.1886 4.9324C27.7505 6.87132 28.125 9.4502 28.125 12V15C28.125 15.6213 27.6213 16.125 27 16.125C26.3787 16.125 25.875 15.6213 25.875 15V12C25.875 9.5848 25.4995 7.66368 24.4364 6.34385C23.4156 5.07658 21.5575 4.125 18 4.125C14.4425 4.125 12.5844 5.07658 11.5636 6.34385Z" fill="url(#paint0_linear_846_4555)"/>
<path fill-rule="evenodd" clip-rule="evenodd" d="M18 21.375C16.5503 21.375 15.375 22.5503 15.375 24C15.375 25.4497 16.5503 26.625 18 26.625C19.4497 26.625 20.625 25.4497 20.625 24C20.625 22.5503 19.4497 21.375 18 21.375ZM13.125 24C13.125 21.3076 15.3076 19.125 18 19.125C20.6924 19.125 22.875 21.3076 22.875 24C22.875 26.6924 20.6924 28.875 18 28.875C15.3076 28.875 13.125 26.6924 13.125 24Z" fill="url(#paint1_linear_846_4555)"/>
<path fill-rule="evenodd" clip-rule="evenodd" d="M5.2955 17.2955C4.52825 18.0627 4.125 19.492 4.125 22.5V25.5C4.125 28.508 4.52825 29.9373 5.2955 30.7045C6.06274 31.4717 7.49196 31.875 10.5 31.875H25.5C28.508 31.875 29.9373 31.4717 30.7045 30.7045C31.4717 29.9373 31.875 28.508 31.875 25.5V22.5C31.875 19.492 31.4717 18.0627 30.7045 17.2955C29.9373 16.5283 28.508 16.125 25.5 16.125H10.5C7.49196 16.125 6.06274 16.5283 5.2955 17.2955ZM3.7045 15.7045C5.18726 14.2217 7.50804 13.875 10.5 13.875H25.5C28.492 13.875 30.8127 14.2217 32.2955 15.7045C33.7783 17.1873 34.125 19.508 34.125 22.5V25.5C34.125 28.492 33.7783 30.8127 32.2955 32.2955C30.8127 33.7783 28.492 34.125 25.5 34.125H10.5C7.50804 34.125 5.18726 33.7783 3.7045 32.2955C2.22175 30.8127 1.875 28.492 1.875 25.5V22.5C1.875 19.508 2.22175 17.1873 3.7045 15.7045Z" fill="url(#paint2_linear_846_4555)"/>
<defs>
<linearGradient id="paint0_linear_846_4555" x1="-0.013513" y1="-0.140627" x2="45.5587" y2="13.0253" gradientUnits="userSpaceOnUse">
<stop stop-color="#20A7EE"/>
<stop offset="1" stop-color="#0ED5E1"/>
</linearGradient>
<linearGradient id="paint1_linear_846_4555" x1="-0.013513" y1="-0.140627" x2="45.5587" y2="13.0253" gradientUnits="userSpaceOnUse">
<stop stop-color="#20A7EE"/>
<stop offset="1" stop-color="#0ED5E1"/>
</linearGradient>
<linearGradient id="paint2_linear_846_4555" x1="-0.013513" y1="-0.140627" x2="45.5587" y2="13.0253" gradientUnits="userSpaceOnUse">
<stop stop-color="#20A7EE"/>
<stop offset="1" stop-color="#0ED5E1"/>
</linearGradient>
</defs>
</svg>
