<svg width="36" height="36" viewBox="0 0 36 36" fill="none" xmlns="http://www.w3.org/2000/svg">
<path fill-rule="evenodd" clip-rule="evenodd" d="M9 4.14014C7.12146 4.14014 5.625 5.64123 5.625 7.47009V23.8351C5.625 25.664 7.12146 27.1651 9 27.1651H10.125C11.599 27.1651 13.0415 27.742 14.0981 28.7972C14.0989 28.798 14.0997 28.7988 14.1005 28.7996L16.6603 31.3296C16.6604 31.3296 16.6603 31.3295 16.6603 31.3296C17.3921 32.0517 18.5923 32.052 19.3242 31.33M19.3242 31.33L21.8845 28.7996C21.8854 28.7987 21.8862 28.7979 21.8871 28.797C22.9422 27.7433 24.3691 27.1651 25.86 27.1651H27C28.8761 27.1651 30.375 25.6515 30.375 23.8351V7.47009C30.375 5.64123 28.8785 4.14014 27 4.14014H9M3.375 7.47009C3.375 4.37896 5.89854 1.89014 9 1.89014H27C30.1015 1.89014 32.625 4.37896 32.625 7.47009V23.8351C32.625 26.9088 30.1039 29.4151 27 29.4151H25.86C24.9521 29.4151 24.1001 29.766 23.4755 30.3906L23.4708 30.3952L20.9058 32.9303C19.2977 34.5179 16.6878 34.5183 15.0797 32.9308L12.5142 30.3952L12.5095 30.3906C11.8862 29.7673 11.0199 29.4151 10.125 29.4151H9C5.89854 29.4151 3.375 26.9263 3.375 23.8351V7.47009Z" fill="url(#paint0_linear_846_4526)"/>
<path fill-rule="evenodd" clip-rule="evenodd" d="M13.035 12.3301C12.2614 12.3301 11.625 12.9664 11.625 13.7402C11.625 14.3615 11.1213 14.8652 10.5 14.8652C9.87868 14.8652 9.375 14.3615 9.375 13.7402C9.375 11.7239 11.0186 10.0801 13.035 10.0801C15.0514 10.0801 16.695 11.7239 16.695 13.7402C16.695 15.8042 15.1602 16.8887 14.0935 17.6208C14.0424 17.6559 13.992 17.6905 13.9423 17.7245C12.9652 18.3941 12.2696 18.8708 11.908 19.5302H15.57C16.1913 19.5302 16.695 20.0338 16.695 20.6552C16.695 21.2765 16.1913 21.7802 15.57 21.7802H11.55C10.3236 21.7802 9.15762 20.5925 9.60987 19.1981L9.61152 19.193C10.1476 17.5666 11.552 16.6209 12.546 15.9516C12.6416 15.8872 12.7334 15.8254 12.8203 15.7657C13.9773 14.9716 14.445 14.4961 14.445 13.7402C14.445 12.9664 13.8086 12.3301 13.035 12.3301Z" fill="url(#paint1_linear_846_4526)"/>
<path fill-rule="evenodd" clip-rule="evenodd" d="M21.4909 11.0061C21.9727 10.249 22.8909 9.91586 23.7333 10.1517C24.6077 10.3966 25.185 11.1948 25.185 12.0752V17.355H25.5C26.1213 17.355 26.625 17.8587 26.625 18.48C26.625 19.1013 26.1213 19.605 25.5 19.605H25.185V20.6401C25.185 21.2614 24.6813 21.7651 24.06 21.7651C23.4387 21.7651 22.935 21.2614 22.935 20.6401V19.605H19.995C19.2629 19.605 18.5696 19.2235 18.1964 18.5788C17.8295 17.9451 17.8295 17.1401 18.1964 16.5064L18.1994 16.5012C19.2199 14.7604 20.3961 12.7698 21.4842 11.0168L21.4909 11.0061ZM22.935 17.355V12.9513C22.0559 14.3877 21.139 15.9375 20.3071 17.355H22.935Z" fill="url(#paint2_linear_846_4526)"/>
<defs>
<linearGradient id="paint0_linear_846_4526" x1="1.66216" y1="-0.124307" x2="43.5646" y2="10.8617" gradientUnits="userSpaceOnUse">
<stop stop-color="#20A7EE"/>
<stop offset="1" stop-color="#0ED5E1"/>
</linearGradient>
<linearGradient id="paint1_linear_846_4526" x1="1.66216" y1="-0.124307" x2="43.5646" y2="10.8617" gradientUnits="userSpaceOnUse">
<stop stop-color="#20A7EE"/>
<stop offset="1" stop-color="#0ED5E1"/>
</linearGradient>
<linearGradient id="paint2_linear_846_4526" x1="1.66216" y1="-0.124307" x2="43.5646" y2="10.8617" gradientUnits="userSpaceOnUse">
<stop stop-color="#20A7EE"/>
<stop offset="1" stop-color="#0ED5E1"/>
</linearGradient>
</defs>
</svg>
